<mxfile host="app.diagrams.net" modified="2021-07-23T05:42:29.948Z" agent="5.0 (Macintosh; Intel Mac OS X 10_15_7) AppleWebKit/605.1.15 (KHTML, like Gecko) Version/14.1 Safari/605.1.15" etag="oD3nX_8l_V8wYB_sxxvd" version="14.9.2" type="github">
  <diagram id="C5RBs43oDa-KdzZeNtuy" name="Page-1">
    <mxGraphModel dx="2069" dy="2794" grid="1" gridSize="10" guides="1" tooltips="1" connect="1" arrows="1" fold="1" page="1" pageScale="1" pageWidth="827" pageHeight="1169" background="none" math="0" shadow="0">
      <root>
        <mxCell id="WIyWlLk6GJQsqaUBKTNV-0" />
        <mxCell id="WIyWlLk6GJQsqaUBKTNV-1" parent="WIyWlLk6GJQsqaUBKTNV-0" />
        <mxCell id="x6h3ibDEJepspaHp2Ixp-130" value="" style="rounded=0;whiteSpace=wrap;html=1;dashed=1;labelBackgroundColor=none;" parent="WIyWlLk6GJQsqaUBKTNV-1" vertex="1">
          <mxGeometry x="450" y="-210" width="2030" height="1180" as="geometry" />
        </mxCell>
        <mxCell id="x6h3ibDEJepspaHp2Ixp-72" value="" style="rounded=0;whiteSpace=wrap;html=1;dashed=1;labelBackgroundColor=none;" parent="WIyWlLk6GJQsqaUBKTNV-1" vertex="1">
          <mxGeometry x="1281.88" y="60" width="370" height="300" as="geometry" />
        </mxCell>
        <mxCell id="x6h3ibDEJepspaHp2Ixp-2" value="" style="edgeStyle=orthogonalEdgeStyle;rounded=0;orthogonalLoop=1;jettySize=auto;html=1;fillColor=#dae8fc;strokeColor=#6c8ebf;labelBackgroundColor=none;" parent="WIyWlLk6GJQsqaUBKTNV-1" source="x6h3ibDEJepspaHp2Ixp-0" target="x6h3ibDEJepspaHp2Ixp-1" edge="1">
          <mxGeometry relative="1" as="geometry" />
        </mxCell>
        <mxCell id="x6h3ibDEJepspaHp2Ixp-0" value="dyld::_main" style="rounded=1;whiteSpace=wrap;html=1;dashed=1;fillColor=#dae8fc;strokeColor=#6c8ebf;labelBackgroundColor=none;" parent="WIyWlLk6GJQsqaUBKTNV-1" vertex="1">
          <mxGeometry x="530" y="180" width="160" height="60" as="geometry" />
        </mxCell>
        <mxCell id="x6h3ibDEJepspaHp2Ixp-4" value="" style="edgeStyle=orthogonalEdgeStyle;rounded=0;orthogonalLoop=1;jettySize=auto;html=1;fillColor=#dae8fc;strokeColor=#6c8ebf;labelBackgroundColor=none;" parent="WIyWlLk6GJQsqaUBKTNV-1" source="x6h3ibDEJepspaHp2Ixp-1" target="x6h3ibDEJepspaHp2Ixp-3" edge="1">
          <mxGeometry relative="1" as="geometry" />
        </mxCell>
        <mxCell id="x6h3ibDEJepspaHp2Ixp-1" value="&lt;p style=&quot;margin: 0px; font-stretch: normal; line-height: normal; font-family: menlo; color: rgb(15, 104, 160);&quot;&gt;launchWithClosure&lt;/p&gt;" style="whiteSpace=wrap;html=1;rounded=1;dashed=1;fillColor=#dae8fc;strokeColor=#6c8ebf;labelBackgroundColor=none;" parent="WIyWlLk6GJQsqaUBKTNV-1" vertex="1">
          <mxGeometry x="730" y="180" width="160" height="60" as="geometry" />
        </mxCell>
        <mxCell id="x6h3ibDEJepspaHp2Ixp-3" value="&lt;p style=&quot;margin: 0px; font-stretch: normal; line-height: normal; font-family: menlo; color: rgb(15, 104, 160);&quot;&gt;runInitialzersBottomUp&lt;/p&gt;" style="whiteSpace=wrap;html=1;rounded=1;dashed=1;fillColor=#dae8fc;strokeColor=#6c8ebf;labelBackgroundColor=none;" parent="WIyWlLk6GJQsqaUBKTNV-1" vertex="1">
          <mxGeometry x="927.5" y="180" width="190" height="60" as="geometry" />
        </mxCell>
        <mxCell id="x6h3ibDEJepspaHp2Ixp-82" style="edgeStyle=orthogonalEdgeStyle;rounded=0;orthogonalLoop=1;jettySize=auto;html=1;exitX=1;exitY=0.5;exitDx=0;exitDy=0;entryX=0;entryY=0.5;entryDx=0;entryDy=0;labelBackgroundColor=none;" parent="WIyWlLk6GJQsqaUBKTNV-1" source="x6h3ibDEJepspaHp2Ixp-3" target="x6h3ibDEJepspaHp2Ixp-74" edge="1">
          <mxGeometry relative="1" as="geometry">
            <mxPoint x="1090" y="210" as="sourcePoint" />
          </mxGeometry>
        </mxCell>
        <mxCell id="x6h3ibDEJepspaHp2Ixp-84" style="edgeStyle=orthogonalEdgeStyle;rounded=0;orthogonalLoop=1;jettySize=auto;html=1;entryX=0.5;entryY=0;entryDx=0;entryDy=0;labelBackgroundColor=none;exitX=0.5;exitY=1;exitDx=0;exitDy=0;" parent="WIyWlLk6GJQsqaUBKTNV-1" source="x6h3ibDEJepspaHp2Ixp-3" target="x6h3ibDEJepspaHp2Ixp-83" edge="1">
          <mxGeometry relative="1" as="geometry">
            <mxPoint x="1023" y="270" as="sourcePoint" />
          </mxGeometry>
        </mxCell>
        <mxCell id="x6h3ibDEJepspaHp2Ixp-73" value="&lt;p style=&quot;margin: 0px; font-stretch: normal; line-height: normal; font-family: menlo; color: rgb(50, 109, 116);&quot;&gt;_objcNotifyMapped&lt;/p&gt;" style="whiteSpace=wrap;html=1;rounded=1;dashed=1;labelBackgroundColor=none;fillColor=#dae8fc;strokeColor=#6c8ebf;" parent="WIyWlLk6GJQsqaUBKTNV-1" vertex="1">
          <mxGeometry x="1301.88" y="90" width="135" height="60" as="geometry" />
        </mxCell>
        <mxCell id="x6h3ibDEJepspaHp2Ixp-74" value="&lt;p style=&quot;margin: 0px; font-style: normal; font-variant-caps: normal; font-weight: normal; font-stretch: normal; font-size: 12px; line-height: normal; font-family: menlo; color: rgb(50, 109, 116);&quot;&gt;_objcNotifyInit&lt;/p&gt;" style="whiteSpace=wrap;html=1;rounded=1;dashed=1;labelBackgroundColor=none;fillColor=#dae8fc;strokeColor=#6c8ebf;" parent="WIyWlLk6GJQsqaUBKTNV-1" vertex="1">
          <mxGeometry x="1301.88" y="180" width="135" height="60" as="geometry" />
        </mxCell>
        <mxCell id="x6h3ibDEJepspaHp2Ixp-75" value="&lt;p style=&quot;margin: 0px; font-stretch: normal; line-height: normal; font-family: menlo; color: rgb(50, 109, 116);&quot;&gt;_objcNotifyUnmapped&lt;/p&gt;" style="whiteSpace=wrap;html=1;rounded=1;dashed=1;labelBackgroundColor=none;fillColor=#dae8fc;strokeColor=#6c8ebf;" parent="WIyWlLk6GJQsqaUBKTNV-1" vertex="1">
          <mxGeometry x="1301.88" y="270" width="135" height="60" as="geometry" />
        </mxCell>
        <mxCell id="x6h3ibDEJepspaHp2Ixp-79" style="edgeStyle=orthogonalEdgeStyle;rounded=0;orthogonalLoop=1;jettySize=auto;html=1;exitX=0;exitY=0.5;exitDx=0;exitDy=0;entryX=1;entryY=0.5;entryDx=0;entryDy=0;labelBackgroundColor=none;fillColor=#dae8fc;strokeColor=#6c8ebf;" parent="WIyWlLk6GJQsqaUBKTNV-1" source="x6h3ibDEJepspaHp2Ixp-76" target="x6h3ibDEJepspaHp2Ixp-73" edge="1">
          <mxGeometry relative="1" as="geometry" />
        </mxCell>
        <mxCell id="I2qgZES5atHOCJN5H_tt-0" value="赋值" style="edgeLabel;html=1;align=center;verticalAlign=middle;resizable=0;points=[];" vertex="1" connectable="0" parent="x6h3ibDEJepspaHp2Ixp-79">
          <mxGeometry x="0.0138" y="-1" relative="1" as="geometry">
            <mxPoint as="offset" />
          </mxGeometry>
        </mxCell>
        <mxCell id="x6h3ibDEJepspaHp2Ixp-76" value="&lt;p style=&quot;margin: 0px; font-stretch: normal; line-height: normal; font-family: menlo; color: rgb(50, 109, 116);&quot;&gt;map_images&lt;/p&gt;" style="whiteSpace=wrap;html=1;rounded=1;dashed=1;labelBackgroundColor=none;fillColor=#f8cecc;strokeColor=#b85450;" parent="WIyWlLk6GJQsqaUBKTNV-1" vertex="1">
          <mxGeometry x="1491.88" y="90" width="135" height="60" as="geometry" />
        </mxCell>
        <mxCell id="x6h3ibDEJepspaHp2Ixp-80" style="edgeStyle=orthogonalEdgeStyle;rounded=0;orthogonalLoop=1;jettySize=auto;html=1;exitX=0;exitY=0.5;exitDx=0;exitDy=0;entryX=1;entryY=0.5;entryDx=0;entryDy=0;labelBackgroundColor=none;fillColor=#dae8fc;strokeColor=#6c8ebf;" parent="WIyWlLk6GJQsqaUBKTNV-1" source="x6h3ibDEJepspaHp2Ixp-77" target="x6h3ibDEJepspaHp2Ixp-74" edge="1">
          <mxGeometry relative="1" as="geometry" />
        </mxCell>
        <mxCell id="I2qgZES5atHOCJN5H_tt-1" value="赋值" style="edgeLabel;html=1;align=center;verticalAlign=middle;resizable=0;points=[];" vertex="1" connectable="0" parent="x6h3ibDEJepspaHp2Ixp-80">
          <mxGeometry x="-0.0225" relative="1" as="geometry">
            <mxPoint as="offset" />
          </mxGeometry>
        </mxCell>
        <mxCell id="x6h3ibDEJepspaHp2Ixp-77" value="&lt;p style=&quot;margin: 0px; font-style: normal; font-variant-caps: normal; font-weight: normal; font-stretch: normal; font-size: 12px; line-height: normal; font-family: menlo; color: rgb(50, 109, 116);&quot;&gt;_objcNotifyInit&lt;/p&gt;" style="whiteSpace=wrap;html=1;rounded=1;dashed=1;labelBackgroundColor=none;fillColor=#f8cecc;strokeColor=#b85450;" parent="WIyWlLk6GJQsqaUBKTNV-1" vertex="1">
          <mxGeometry x="1491.88" y="180" width="135" height="60" as="geometry" />
        </mxCell>
        <mxCell id="x6h3ibDEJepspaHp2Ixp-81" style="edgeStyle=orthogonalEdgeStyle;rounded=0;orthogonalLoop=1;jettySize=auto;html=1;exitX=0;exitY=0.5;exitDx=0;exitDy=0;entryX=1;entryY=0.5;entryDx=0;entryDy=0;labelBackgroundColor=none;fillColor=#dae8fc;strokeColor=#6c8ebf;" parent="WIyWlLk6GJQsqaUBKTNV-1" source="x6h3ibDEJepspaHp2Ixp-78" target="x6h3ibDEJepspaHp2Ixp-75" edge="1">
          <mxGeometry relative="1" as="geometry" />
        </mxCell>
        <mxCell id="I2qgZES5atHOCJN5H_tt-2" value="赋值" style="edgeLabel;html=1;align=center;verticalAlign=middle;resizable=0;points=[];" vertex="1" connectable="0" parent="x6h3ibDEJepspaHp2Ixp-81">
          <mxGeometry x="0.0138" y="1" relative="1" as="geometry">
            <mxPoint x="1" y="-1" as="offset" />
          </mxGeometry>
        </mxCell>
        <mxCell id="x6h3ibDEJepspaHp2Ixp-78" value="&lt;p style=&quot;margin: 0px; font-stretch: normal; line-height: normal; font-family: menlo; color: rgb(50, 109, 116);&quot;&gt;unmap_image&lt;/p&gt;" style="whiteSpace=wrap;html=1;rounded=1;dashed=1;labelBackgroundColor=none;fillColor=#f8cecc;strokeColor=#b85450;" parent="WIyWlLk6GJQsqaUBKTNV-1" vertex="1">
          <mxGeometry x="1491.88" y="270" width="135" height="60" as="geometry" />
        </mxCell>
        <mxCell id="x6h3ibDEJepspaHp2Ixp-86" value="" style="edgeStyle=orthogonalEdgeStyle;rounded=0;orthogonalLoop=1;jettySize=auto;html=1;labelBackgroundColor=none;" parent="WIyWlLk6GJQsqaUBKTNV-1" source="x6h3ibDEJepspaHp2Ixp-83" target="x6h3ibDEJepspaHp2Ixp-85" edge="1">
          <mxGeometry relative="1" as="geometry" />
        </mxCell>
        <mxCell id="x6h3ibDEJepspaHp2Ixp-83" value="&lt;p style=&quot;margin: 0px; font-stretch: normal; line-height: normal; font-family: menlo; color: rgb(50, 109, 116);&quot;&gt;runAllInitializersInImage&lt;/p&gt;" style="whiteSpace=wrap;html=1;rounded=1;dashed=1;fillColor=#dae8fc;strokeColor=#6c8ebf;labelBackgroundColor=none;" parent="WIyWlLk6GJQsqaUBKTNV-1" vertex="1">
          <mxGeometry x="917.5" y="840" width="210" height="60" as="geometry" />
        </mxCell>
        <mxCell id="x6h3ibDEJepspaHp2Ixp-88" value="" style="edgeStyle=orthogonalEdgeStyle;rounded=0;orthogonalLoop=1;jettySize=auto;html=1;labelBackgroundColor=none;" parent="WIyWlLk6GJQsqaUBKTNV-1" source="x6h3ibDEJepspaHp2Ixp-85" target="x6h3ibDEJepspaHp2Ixp-87" edge="1">
          <mxGeometry relative="1" as="geometry" />
        </mxCell>
        <mxCell id="x6h3ibDEJepspaHp2Ixp-85" value="&lt;p style=&quot;margin: 0px; font-stretch: normal; line-height: normal; font-family: menlo; color: rgb(15, 104, 160);&quot;&gt;libSystem_initializer&lt;/p&gt;" style="whiteSpace=wrap;html=1;rounded=1;dashed=1;fillColor=#d5e8d4;strokeColor=#82b366;labelBackgroundColor=none;" parent="WIyWlLk6GJQsqaUBKTNV-1" vertex="1">
          <mxGeometry x="1170" y="840" width="177.5" height="60" as="geometry" />
        </mxCell>
        <mxCell id="x6h3ibDEJepspaHp2Ixp-99" style="edgeStyle=orthogonalEdgeStyle;rounded=0;orthogonalLoop=1;jettySize=auto;html=1;exitX=0.5;exitY=0;exitDx=0;exitDy=0;entryX=0.5;entryY=1;entryDx=0;entryDy=0;labelBackgroundColor=none;" parent="WIyWlLk6GJQsqaUBKTNV-1" source="x6h3ibDEJepspaHp2Ixp-87" target="x6h3ibDEJepspaHp2Ixp-94" edge="1">
          <mxGeometry relative="1" as="geometry" />
        </mxCell>
        <mxCell id="x6h3ibDEJepspaHp2Ixp-106" style="edgeStyle=orthogonalEdgeStyle;rounded=0;orthogonalLoop=1;jettySize=auto;html=1;exitX=1;exitY=0.5;exitDx=0;exitDy=0;entryX=0;entryY=0.5;entryDx=0;entryDy=0;labelBackgroundColor=none;" parent="WIyWlLk6GJQsqaUBKTNV-1" source="x6h3ibDEJepspaHp2Ixp-87" target="x6h3ibDEJepspaHp2Ixp-92" edge="1">
          <mxGeometry relative="1" as="geometry" />
        </mxCell>
        <mxCell id="x6h3ibDEJepspaHp2Ixp-87" value="&lt;p style=&quot;margin: 0px; font-style: normal; font-variant-caps: normal; font-weight: normal; font-stretch: normal; font-size: 12px; line-height: normal; font-family: menlo; color: rgb(15, 104, 160);&quot;&gt;_dyld_initializer&lt;/p&gt;" style="whiteSpace=wrap;html=1;rounded=1;dashed=1;fillColor=#dae8fc;strokeColor=#6c8ebf;labelBackgroundColor=none;" parent="WIyWlLk6GJQsqaUBKTNV-1" vertex="1">
          <mxGeometry x="1390" y="840" width="153.75" height="60" as="geometry" />
        </mxCell>
        <mxCell id="x6h3ibDEJepspaHp2Ixp-109" style="edgeStyle=orthogonalEdgeStyle;rounded=0;orthogonalLoop=1;jettySize=auto;html=1;exitX=1;exitY=0.5;exitDx=0;exitDy=0;entryX=1;entryY=0.5;entryDx=0;entryDy=0;labelBackgroundColor=none;" parent="WIyWlLk6GJQsqaUBKTNV-1" source="x6h3ibDEJepspaHp2Ixp-92" target="x6h3ibDEJepspaHp2Ixp-93" edge="1">
          <mxGeometry relative="1" as="geometry">
            <Array as="points">
              <mxPoint x="2050" y="870" />
              <mxPoint x="2050" y="120" />
            </Array>
          </mxGeometry>
        </mxCell>
        <mxCell id="x6h3ibDEJepspaHp2Ixp-92" value="&lt;p style=&quot;margin: 0px; font-stretch: normal; line-height: normal; font-family: menlo; color: rgb(50, 109, 116);&quot;&gt;applyInitialImages&lt;/p&gt;" style="whiteSpace=wrap;html=1;rounded=1;dashed=1;fillColor=#dae8fc;strokeColor=#6c8ebf;labelBackgroundColor=none;" parent="WIyWlLk6GJQsqaUBKTNV-1" vertex="1">
          <mxGeometry x="1590" y="840" width="153.75" height="60" as="geometry" />
        </mxCell>
        <mxCell id="x6h3ibDEJepspaHp2Ixp-108" style="edgeStyle=orthogonalEdgeStyle;rounded=0;orthogonalLoop=1;jettySize=auto;html=1;exitX=0;exitY=0.5;exitDx=0;exitDy=0;entryX=1;entryY=0.5;entryDx=0;entryDy=0;labelBackgroundColor=none;" parent="WIyWlLk6GJQsqaUBKTNV-1" source="x6h3ibDEJepspaHp2Ixp-93" target="x6h3ibDEJepspaHp2Ixp-76" edge="1">
          <mxGeometry relative="1" as="geometry" />
        </mxCell>
        <mxCell id="x6h3ibDEJepspaHp2Ixp-93" value="&lt;p style=&quot;margin: 0px; font-stretch: normal; line-height: normal; font-family: menlo; color: rgb(50, 109, 116);&quot;&gt;runImageCallbacks&lt;/p&gt;" style="whiteSpace=wrap;html=1;rounded=1;dashed=1;fillColor=#dae8fc;strokeColor=#6c8ebf;labelBackgroundColor=none;" parent="WIyWlLk6GJQsqaUBKTNV-1" vertex="1">
          <mxGeometry x="1680" y="90" width="153.75" height="60" as="geometry" />
        </mxCell>
        <mxCell id="x6h3ibDEJepspaHp2Ixp-100" style="edgeStyle=orthogonalEdgeStyle;rounded=0;orthogonalLoop=1;jettySize=auto;html=1;exitX=0.5;exitY=0;exitDx=0;exitDy=0;entryX=0.5;entryY=1;entryDx=0;entryDy=0;labelBackgroundColor=none;" parent="WIyWlLk6GJQsqaUBKTNV-1" source="x6h3ibDEJepspaHp2Ixp-94" target="x6h3ibDEJepspaHp2Ixp-95" edge="1">
          <mxGeometry relative="1" as="geometry" />
        </mxCell>
        <mxCell id="x6h3ibDEJepspaHp2Ixp-94" value="&lt;p style=&quot;margin: 0px; font-stretch: normal; line-height: normal; font-family: menlo; color: rgb(50, 109, 116);&quot;&gt;libdispatch_init&lt;/p&gt;" style="whiteSpace=wrap;html=1;rounded=1;dashed=1;fillColor=#ffe6cc;strokeColor=#d79b00;labelBackgroundColor=none;" parent="WIyWlLk6GJQsqaUBKTNV-1" vertex="1">
          <mxGeometry x="1390" y="750" width="153.75" height="60" as="geometry" />
        </mxCell>
        <mxCell id="x6h3ibDEJepspaHp2Ixp-101" style="edgeStyle=orthogonalEdgeStyle;rounded=0;orthogonalLoop=1;jettySize=auto;html=1;exitX=0.5;exitY=0;exitDx=0;exitDy=0;entryX=0.5;entryY=1;entryDx=0;entryDy=0;labelBackgroundColor=none;" parent="WIyWlLk6GJQsqaUBKTNV-1" source="x6h3ibDEJepspaHp2Ixp-95" target="x6h3ibDEJepspaHp2Ixp-96" edge="1">
          <mxGeometry relative="1" as="geometry" />
        </mxCell>
        <mxCell id="x6h3ibDEJepspaHp2Ixp-95" value="&lt;p style=&quot;margin: 0px; font-stretch: normal; line-height: normal; font-family: menlo; color: rgb(50, 109, 116);&quot;&gt;_os_object_init&lt;/p&gt;" style="whiteSpace=wrap;html=1;rounded=1;dashed=1;fillColor=#ffe6cc;strokeColor=#d79b00;labelBackgroundColor=none;" parent="WIyWlLk6GJQsqaUBKTNV-1" vertex="1">
          <mxGeometry x="1390" y="660" width="153.75" height="60" as="geometry" />
        </mxCell>
        <mxCell id="x6h3ibDEJepspaHp2Ixp-102" style="edgeStyle=orthogonalEdgeStyle;rounded=0;orthogonalLoop=1;jettySize=auto;html=1;exitX=0.5;exitY=0;exitDx=0;exitDy=0;entryX=0.5;entryY=1;entryDx=0;entryDy=0;labelBackgroundColor=none;" parent="WIyWlLk6GJQsqaUBKTNV-1" source="x6h3ibDEJepspaHp2Ixp-96" target="x6h3ibDEJepspaHp2Ixp-97" edge="1">
          <mxGeometry relative="1" as="geometry" />
        </mxCell>
        <mxCell id="x6h3ibDEJepspaHp2Ixp-96" value="&lt;p style=&quot;margin: 0px; font-stretch: normal; line-height: normal; font-family: menlo; color: rgb(15, 104, 160);&quot;&gt;_objc_init&lt;/p&gt;" style="whiteSpace=wrap;html=1;rounded=1;dashed=1;fillColor=#f8cecc;strokeColor=#b85450;labelBackgroundColor=none;" parent="WIyWlLk6GJQsqaUBKTNV-1" vertex="1">
          <mxGeometry x="1390" y="570" width="153.75" height="60" as="geometry" />
        </mxCell>
        <mxCell id="x6h3ibDEJepspaHp2Ixp-103" style="edgeStyle=orthogonalEdgeStyle;rounded=0;orthogonalLoop=1;jettySize=auto;html=1;exitX=0.5;exitY=0;exitDx=0;exitDy=0;entryX=0.5;entryY=1;entryDx=0;entryDy=0;labelBackgroundColor=none;" parent="WIyWlLk6GJQsqaUBKTNV-1" source="x6h3ibDEJepspaHp2Ixp-97" target="x6h3ibDEJepspaHp2Ixp-98" edge="1">
          <mxGeometry relative="1" as="geometry" />
        </mxCell>
        <mxCell id="x6h3ibDEJepspaHp2Ixp-97" value="&lt;p style=&quot;margin: 0px; font-stretch: normal; line-height: normal; font-family: menlo; color: rgb(50, 109, 116);&quot;&gt;&lt;span style=&quot;color: #1c464a&quot;&gt;dyld3&lt;/span&gt;&lt;span style=&quot;color: rgba(0 , 0 , 0 , 0.85)&quot;&gt;::&lt;/span&gt;_dyld_objc_notify_register&lt;/p&gt;" style="whiteSpace=wrap;html=1;rounded=1;dashed=1;fillColor=#dae8fc;strokeColor=#6c8ebf;labelBackgroundColor=none;" parent="WIyWlLk6GJQsqaUBKTNV-1" vertex="1">
          <mxGeometry x="1331.8700000000001" y="480" width="270" height="60" as="geometry" />
        </mxCell>
        <mxCell id="x6h3ibDEJepspaHp2Ixp-104" style="edgeStyle=orthogonalEdgeStyle;rounded=0;orthogonalLoop=1;jettySize=auto;html=1;exitX=0.5;exitY=0;exitDx=0;exitDy=0;entryX=0.5;entryY=1;entryDx=0;entryDy=0;labelBackgroundColor=none;" parent="WIyWlLk6GJQsqaUBKTNV-1" source="x6h3ibDEJepspaHp2Ixp-98" target="x6h3ibDEJepspaHp2Ixp-72" edge="1">
          <mxGeometry relative="1" as="geometry" />
        </mxCell>
        <mxCell id="x6h3ibDEJepspaHp2Ixp-98" value="&lt;p style=&quot;margin: 0px; font-stretch: normal; line-height: normal; font-family: menlo; color: rgb(15, 104, 160);&quot;&gt;setObjCNotifiers&lt;/p&gt;" style="whiteSpace=wrap;html=1;rounded=1;dashed=1;fillColor=#dae8fc;strokeColor=#6c8ebf;labelBackgroundColor=none;" parent="WIyWlLk6GJQsqaUBKTNV-1" vertex="1">
          <mxGeometry x="1390.01" y="390" width="153.75" height="60" as="geometry" />
        </mxCell>
        <mxCell id="x6h3ibDEJepspaHp2Ixp-126" style="edgeStyle=orthogonalEdgeStyle;rounded=0;orthogonalLoop=1;jettySize=auto;html=1;exitX=0.5;exitY=1;exitDx=0;exitDy=0;entryX=0.5;entryY=0;entryDx=0;entryDy=0;labelBackgroundColor=none;" parent="WIyWlLk6GJQsqaUBKTNV-1" source="x6h3ibDEJepspaHp2Ixp-110" target="x6h3ibDEJepspaHp2Ixp-111" edge="1">
          <mxGeometry relative="1" as="geometry" />
        </mxCell>
        <mxCell id="x6h3ibDEJepspaHp2Ixp-129" style="edgeStyle=orthogonalEdgeStyle;rounded=0;orthogonalLoop=1;jettySize=auto;html=1;exitX=0;exitY=0.5;exitDx=0;exitDy=0;entryX=0.5;entryY=0;entryDx=0;entryDy=0;labelBackgroundColor=none;" parent="WIyWlLk6GJQsqaUBKTNV-1" source="x6h3ibDEJepspaHp2Ixp-110" target="x6h3ibDEJepspaHp2Ixp-3" edge="1">
          <mxGeometry relative="1" as="geometry" />
        </mxCell>
        <mxCell id="x6h3ibDEJepspaHp2Ixp-110" value="&lt;p style=&quot;margin: 0px; font-stretch: normal; line-height: normal; font-family: menlo; color: rgb(15, 104, 160);&quot;&gt;dlopen&lt;/p&gt;" style="whiteSpace=wrap;html=1;rounded=1;dashed=1;labelBackgroundColor=none;fillColor=#dae8fc;strokeColor=#6c8ebf;" parent="WIyWlLk6GJQsqaUBKTNV-1" vertex="1">
          <mxGeometry x="1399.3899999999999" y="-140" width="135" height="60" as="geometry" />
        </mxCell>
        <mxCell id="x6h3ibDEJepspaHp2Ixp-125" style="edgeStyle=orthogonalEdgeStyle;rounded=0;orthogonalLoop=1;jettySize=auto;html=1;exitX=1;exitY=0.5;exitDx=0;exitDy=0;entryX=0.5;entryY=0;entryDx=0;entryDy=0;labelBackgroundColor=none;" parent="WIyWlLk6GJQsqaUBKTNV-1" source="x6h3ibDEJepspaHp2Ixp-111" target="x6h3ibDEJepspaHp2Ixp-93" edge="1">
          <mxGeometry relative="1" as="geometry" />
        </mxCell>
        <mxCell id="x6h3ibDEJepspaHp2Ixp-127" style="edgeStyle=orthogonalEdgeStyle;rounded=0;orthogonalLoop=1;jettySize=auto;html=1;exitX=0;exitY=0.5;exitDx=0;exitDy=0;entryX=0.5;entryY=0;entryDx=0;entryDy=0;labelBackgroundColor=none;" parent="WIyWlLk6GJQsqaUBKTNV-1" source="x6h3ibDEJepspaHp2Ixp-111" target="x6h3ibDEJepspaHp2Ixp-3" edge="1">
          <mxGeometry relative="1" as="geometry" />
        </mxCell>
        <mxCell id="x6h3ibDEJepspaHp2Ixp-111" value="&lt;p style=&quot;margin: 0px; font-stretch: normal; line-height: normal; font-family: menlo; color: rgb(50, 109, 116);&quot;&gt;loadImage&lt;/p&gt;" style="whiteSpace=wrap;html=1;rounded=1;dashed=1;labelBackgroundColor=none;fillColor=#dae8fc;strokeColor=#6c8ebf;" parent="WIyWlLk6GJQsqaUBKTNV-1" vertex="1">
          <mxGeometry x="1399.3899999999999" y="-40" width="135" height="60" as="geometry" />
        </mxCell>
        <mxCell id="x6h3ibDEJepspaHp2Ixp-118" style="edgeStyle=orthogonalEdgeStyle;rounded=0;orthogonalLoop=1;jettySize=auto;html=1;exitX=0;exitY=0.5;exitDx=0;exitDy=0;entryX=1;entryY=0.5;entryDx=0;entryDy=0;labelBackgroundColor=none;" parent="WIyWlLk6GJQsqaUBKTNV-1" source="x6h3ibDEJepspaHp2Ixp-113" target="x6h3ibDEJepspaHp2Ixp-78" edge="1">
          <mxGeometry relative="1" as="geometry" />
        </mxCell>
        <mxCell id="x6h3ibDEJepspaHp2Ixp-113" value="&lt;p style=&quot;margin: 0px; font-stretch: normal; line-height: normal; font-family: menlo; color: rgb(15, 104, 160);&quot;&gt;removeImages&lt;/p&gt;" style="whiteSpace=wrap;html=1;rounded=1;dashed=1;labelBackgroundColor=none;fillColor=#dae8fc;strokeColor=#6c8ebf;" parent="WIyWlLk6GJQsqaUBKTNV-1" vertex="1">
          <mxGeometry x="1680" y="270" width="135" height="60" as="geometry" />
        </mxCell>
        <mxCell id="x6h3ibDEJepspaHp2Ixp-119" style="edgeStyle=orthogonalEdgeStyle;rounded=0;orthogonalLoop=1;jettySize=auto;html=1;exitX=0;exitY=0.5;exitDx=0;exitDy=0;entryX=1;entryY=0.5;entryDx=0;entryDy=0;labelBackgroundColor=none;" parent="WIyWlLk6GJQsqaUBKTNV-1" source="x6h3ibDEJepspaHp2Ixp-114" target="x6h3ibDEJepspaHp2Ixp-113" edge="1">
          <mxGeometry relative="1" as="geometry" />
        </mxCell>
        <mxCell id="x6h3ibDEJepspaHp2Ixp-114" value="&lt;p style=&quot;margin: 0px; font-stretch: normal; line-height: normal; font-family: menlo; color: rgb(15, 104, 160);&quot;&gt;garbageCollectImages&lt;/p&gt;" style="whiteSpace=wrap;html=1;rounded=1;dashed=1;labelBackgroundColor=none;fillColor=#dae8fc;strokeColor=#6c8ebf;" parent="WIyWlLk6GJQsqaUBKTNV-1" vertex="1">
          <mxGeometry x="1853.75" y="270" width="166.25" height="60" as="geometry" />
        </mxCell>
        <mxCell id="x6h3ibDEJepspaHp2Ixp-121" style="edgeStyle=orthogonalEdgeStyle;rounded=0;orthogonalLoop=1;jettySize=auto;html=1;exitX=0;exitY=0.5;exitDx=0;exitDy=0;entryX=1;entryY=0.5;entryDx=0;entryDy=0;labelBackgroundColor=none;" parent="WIyWlLk6GJQsqaUBKTNV-1" source="x6h3ibDEJepspaHp2Ixp-115" target="x6h3ibDEJepspaHp2Ixp-114" edge="1">
          <mxGeometry relative="1" as="geometry" />
        </mxCell>
        <mxCell id="x6h3ibDEJepspaHp2Ixp-115" value="&lt;p style=&quot;margin: 0px; font-stretch: normal; line-height: normal; font-family: menlo; color: rgb(15, 104, 160);&quot;&gt;decRefCount&lt;/p&gt;" style="whiteSpace=wrap;html=1;rounded=1;dashed=1;labelBackgroundColor=none;fillColor=#dae8fc;strokeColor=#6c8ebf;" parent="WIyWlLk6GJQsqaUBKTNV-1" vertex="1">
          <mxGeometry x="2070" y="270" width="135" height="60" as="geometry" />
        </mxCell>
        <mxCell id="x6h3ibDEJepspaHp2Ixp-122" style="edgeStyle=orthogonalEdgeStyle;rounded=0;orthogonalLoop=1;jettySize=auto;html=1;exitX=0;exitY=0.5;exitDx=0;exitDy=0;entryX=1;entryY=0.5;entryDx=0;entryDy=0;labelBackgroundColor=none;" parent="WIyWlLk6GJQsqaUBKTNV-1" source="x6h3ibDEJepspaHp2Ixp-116" target="x6h3ibDEJepspaHp2Ixp-115" edge="1">
          <mxGeometry relative="1" as="geometry" />
        </mxCell>
        <mxCell id="x6h3ibDEJepspaHp2Ixp-116" value="&lt;p style=&quot;margin: 0px; font-stretch: normal; line-height: normal; font-family: menlo; color: rgb(15, 104, 160);&quot;&gt;dlclose&lt;/p&gt;" style="whiteSpace=wrap;html=1;rounded=1;dashed=1;labelBackgroundColor=none;fillColor=#dae8fc;strokeColor=#6c8ebf;" parent="WIyWlLk6GJQsqaUBKTNV-1" vertex="1">
          <mxGeometry x="2280" y="190" width="135" height="60" as="geometry" />
        </mxCell>
        <mxCell id="x6h3ibDEJepspaHp2Ixp-124" style="edgeStyle=orthogonalEdgeStyle;rounded=0;orthogonalLoop=1;jettySize=auto;html=1;exitX=0;exitY=0.5;exitDx=0;exitDy=0;entryX=1;entryY=0.5;entryDx=0;entryDy=0;labelBackgroundColor=none;" parent="WIyWlLk6GJQsqaUBKTNV-1" source="x6h3ibDEJepspaHp2Ixp-117" target="x6h3ibDEJepspaHp2Ixp-115" edge="1">
          <mxGeometry relative="1" as="geometry" />
        </mxCell>
        <mxCell id="x6h3ibDEJepspaHp2Ixp-117" value="&lt;p style=&quot;margin: 0px; font-stretch: normal; line-height: normal; font-family: menlo; color: rgb(15, 104, 160);&quot;&gt;NSUnLinkModule&lt;/p&gt;" style="whiteSpace=wrap;html=1;rounded=1;dashed=1;labelBackgroundColor=none;fillColor=#dae8fc;strokeColor=#6c8ebf;" parent="WIyWlLk6GJQsqaUBKTNV-1" vertex="1">
          <mxGeometry x="2280" y="350" width="135" height="60" as="geometry" />
        </mxCell>
        <mxCell id="x6h3ibDEJepspaHp2Ixp-131" value="dyld3闭包模式流程图" style="shape=note;whiteSpace=wrap;html=1;backgroundOutline=1;darkOpacity=0.05;dashed=1;labelBackgroundColor=none;fillColor=#ffcc99;strokeColor=#36393d;fontColor=#FFFFFF;fontSize=21;" parent="WIyWlLk6GJQsqaUBKTNV-1" vertex="1">
          <mxGeometry x="450" y="-210" width="280" height="80" as="geometry" />
        </mxCell>
      </root>
    </mxGraphModel>
  </diagram>
</mxfile>
